<?xml version="1.0" encoding="UTF-8" standalone="no"?>
<!DOCTYPE svg PUBLIC "-//W3C//DTD SVG 1.1//EN" "http://www.w3.org/Graphics/SVG/1.1/DTD/svg11.dtd">
<svg width="100%" height="100%" viewBox="0 0 24 24" version="1.1" xmlns="http://www.w3.org/2000/svg" xmlns:xlink="http://www.w3.org/1999/xlink" xml:space="preserve" xmlns:serif="http://www.serif.com/" style="fill-rule:evenodd;clip-rule:evenodd;stroke-linejoin:round;stroke-miterlimit:2;">
    <path d="M24.002,17.485C24.002,19.985 22.002,21.985 19.502,21.985C17.002,21.985 15.002,19.985 15.002,17.485C15.002,14.985 17.002,12.985 19.502,12.985C22.002,12.985 24.002,14.985 24.002,17.485M21.002,20.065L16.922,15.985C16.652,16.405 16.502,16.925 16.502,17.485C16.502,19.145 17.842,20.485 19.502,20.485C20.062,20.485 20.582,20.335 21.002,20.065M22.502,17.485C22.502,15.825 21.162,14.485 19.502,14.485C18.942,14.485 18.422,14.635 18.002,14.905L22.082,18.985C22.352,18.565 22.502,18.045 22.502,17.485Z" style="fill-rule:nonzero;"/>
</svg>
