<?xml version="1.0" encoding="UTF-8" standalone="no"?>
<!DOCTYPE svg PUBLIC "-//W3C//DTD SVG 1.1//EN" "http://www.w3.org/Graphics/SVG/1.1/DTD/svg11.dtd">
<svg width="100%" height="100%" viewBox="0 0 24 24" version="1.1" xmlns="http://www.w3.org/2000/svg"
  xmlns:xlink="http://www.w3.org/1999/xlink" xml:space="preserve"
  xmlns:serif="http://www.serif.com/"
  style="fill-rule:evenodd;clip-rule:evenodd;stroke-linejoin:round;stroke-miterlimit:2;">
  <path d="M16.017,9.045C19.891,9.045 23.036,12.182 23.036,16.045C23.036,19.909 19.891,23.045 16.017,23.045C12.144,23.045 8.999,19.909 8.999,16.045C8.999,12.182 12.144,9.045 16.017,9.045ZM16.017,11.039C13.247,11.039 10.998,13.282 10.998,16.045C10.998,18.808 13.247,21.052 16.017,21.052C18.788,21.052 21.037,18.808 21.037,16.045C21.037,13.282 18.788,11.039 16.017,11.039ZM15,13L16.5,13L16.5,15.82L18.94,17.23L18.19,18.53L15,16.69L15,13Z"/>
  <desc>Decorates the icon with a large clock in the lower right corner.</desc>
  <defs>
    <clipPath id="alert-clock" />
  </defs>
</svg>