<?xml version="1.0" encoding="UTF-8" standalone="no"?>
<!DOCTYPE svg PUBLIC "-//W3C//DTD SVG 1.1//EN" "http://www.w3.org/Graphics/SVG/1.1/DTD/svg11.dtd">
<svg width="100%" height="100%" viewBox="0 0 24 24" version="1.1" xmlns="http://www.w3.org/2000/svg" xmlns:xlink="http://www.w3.org/1999/xlink" xml:space="preserve" xmlns:serif="http://www.serif.com/" style="fill-rule:evenodd;clip-rule:evenodd;stroke-linejoin:round;stroke-miterlimit:2;">
    <path d="M23.725,18.933C23.825,18.933 23.825,19.033 23.725,19.133L22.725,20.833C22.625,20.933 22.525,20.933 22.425,20.933L21.225,20.533C20.925,20.733 20.725,20.833 20.425,21.033L20.225,22.333C20.225,22.433 20.125,22.533 20.025,22.533L18.025,22.533C17.925,22.533 17.825,22.433 17.725,22.333L17.525,21.033C17.225,20.933 16.925,20.733 16.725,20.533L15.525,21.033C15.425,21.033 15.325,21.033 15.225,20.933L14.225,19.233C14.125,19.133 14.225,19.033 14.325,18.933L15.425,18.133L15.425,17.133L14.325,16.333C14.225,16.233 14.225,16.133 14.225,16.033L15.225,14.333C15.325,14.233 15.425,14.233 15.525,14.233L16.725,14.733C17.025,14.533 17.225,14.433 17.525,14.233L17.725,12.933C17.725,12.833 17.825,12.733 18.025,12.733L20.025,12.733C20.125,12.733 20.225,12.833 20.225,12.933L20.425,14.233C20.725,14.333 21.025,14.533 21.325,14.733L22.525,14.233C22.625,14.233 22.825,14.233 22.825,14.333L23.825,16.033C23.925,16.133 23.825,16.233 23.725,16.333L22.625,17.133L22.625,18.133L23.725,18.933M20.425,17.533C20.425,16.733 19.725,16.033 18.925,16.033C18.125,16.033 17.425,16.733 17.425,17.533C17.425,18.333 18.125,19.033 18.925,19.033C19.725,19.033 20.425,18.333 20.425,17.533Z" style="fill-rule:nonzero;"/>
</svg>
