<?xml version="1.0" encoding="UTF-8" standalone="no"?>
<!DOCTYPE svg PUBLIC "-//W3C//DTD SVG 1.1//EN" "http://www.w3.org/Graphics/SVG/1.1/DTD/svg11.dtd">
<svg width="100%" height="100%" viewBox="0 0 24 24" version="1.1" xmlns="http://www.w3.org/2000/svg"
  xmlns:xlink="http://www.w3.org/1999/xlink" xml:space="preserve"
  xmlns:serif="http://www.serif.com/"
  style="fill-rule:evenodd;clip-rule:evenodd;stroke-linejoin:round;stroke-miterlimit:2;">
  <path d="M17,18C16.44,18 16,18.44 16,19C16,19.56 16.44,20 17,20C17.56,20 18,19.56 18,19C18,18.44 17.56,18 17,18M23,19C22.06,21.34 19.73,23 17,23C14.27,23 11.94,21.34 11,19C11.94,16.66 14.27,15 17,15C19.73,15 22.06,16.66 23,19M19.5,19C19.5,17.62 18.38,16.5 17,16.5C15.62,16.5 14.5,17.62 14.5,19C14.5,20.38 15.62,21.5 17,21.5C18.38,21.5 19.5,20.38 19.5,19Z" style="fill-rule:nonzero;"/>
  <desc>Decorates the icon with an eye in the lower right corner.</desc>
  <defs>
    <clipPath id="eye" />
  </defs>
</svg>