<?xml version="1.0" encoding="UTF-8" standalone="no"?>
<!DOCTYPE svg PUBLIC "-//W3C//DTD SVG 1.1//EN" "http://www.w3.org/Graphics/SVG/1.1/DTD/svg11.dtd">
<svg width="100%" height="100%" viewBox="0 0 24 24" version="1.1" xmlns="http://www.w3.org/2000/svg" xmlns:xlink="http://www.w3.org/1999/xlink" xml:space="preserve" xmlns:serif="http://www.serif.com/" style="fill-rule:evenodd;clip-rule:evenodd;stroke-linejoin:round;stroke-miterlimit:2;">
    <path d="M23,17L23,19L21,19L21,21L19,21L19,19L16.8,19C16.4,20.2 15.3,21 14,21C12.3,21 11,19.7 11,18C11,16.3 12.3,15 14,15C15.3,15 16.4,15.8 16.8,17L23,17M15,18C15,17.5 14.6,17 14,17C13.4,17 13,17.5 13,18C13,18.5 13.4,19 14,19C14.6,19 15,18.5 15,18Z" style="fill-rule:nonzero;"/>
</svg>
