<?xml version="1.0" encoding="UTF-8" standalone="no"?>
<!DOCTYPE svg PUBLIC "-//W3C//DTD SVG 1.1//EN" "http://www.w3.org/Graphics/SVG/1.1/DTD/svg11.dtd">
<svg width="100%" height="100%" viewBox="0 0 24 24" version="1.1" xmlns="http://www.w3.org/2000/svg" xmlns:xlink="http://www.w3.org/1999/xlink" xml:space="preserve" xmlns:serif="http://www.serif.com/" style="fill-rule:evenodd;clip-rule:evenodd;stroke-linejoin:round;stroke-miterlimit:2;">
    <path d="M22.327,16.152L22.327,14.652C22.327,13.252 20.927,12.152 19.527,12.152C18.127,12.152 16.727,13.252 16.727,14.652L16.727,16.152C16.127,16.152 15.527,16.752 15.527,17.352L15.527,20.852C15.527,21.552 16.127,22.152 16.727,22.152L22.227,22.152C22.927,22.152 23.527,21.552 23.527,20.952L23.527,17.452C23.527,16.752 22.927,16.152 22.327,16.152M21.027,16.152L18.027,16.152L18.027,14.652C18.027,13.852 18.727,13.352 19.527,13.352C20.327,13.352 21.027,13.852 21.027,14.652L21.027,16.152" style="fill-rule:nonzero;"/>
</svg>
