<?xml version="1.0" encoding="UTF-8" standalone="no"?>
<!DOCTYPE svg PUBLIC "-//W3C//DTD SVG 1.1//EN" "http://www.w3.org/Graphics/SVG/1.1/DTD/svg11.dtd">
<svg width="100%" height="100%" viewBox="0 0 24 24" version="1.1" xmlns="http://www.w3.org/2000/svg"
  xmlns:xlink="http://www.w3.org/1999/xlink" xml:space="preserve"
  xmlns:serif="http://www.serif.com/"
  style="fill-rule:evenodd;clip-rule:evenodd;stroke-linejoin:round;stroke-miterlimit:2;">
  <path d="M23.483,17.46L23.483,13.46L22.313,14.63C21.593,13.91 20.593,13.46 19.483,13.46C17.273,13.46 15.483,15.25 15.483,17.46C15.483,19.67 17.273,21.46 19.483,21.46C21.163,21.46 22.603,20.43 23.193,18.96L21.483,18.96C21.023,19.57 20.303,19.96 19.483,19.96C18.103,19.96 16.983,18.84 16.983,17.46C16.983,16.08 18.103,14.96 19.483,14.96C20.173,14.96 20.803,15.24 21.253,15.69L19.483,17.46L23.483,17.46Z" style="fill-rule:nonzero;"/>
  <desc>Decorates the icon with a arrowed circle in the lower right corner.</desc>
  <defs>
    <clipPath id="circle" />
  </defs>
</svg>