<?xml version="1.0" encoding="UTF-8" standalone="no"?>
<!DOCTYPE svg PUBLIC "-//W3C//DTD SVG 1.1//EN" "http://www.w3.org/Graphics/SVG/1.1/DTD/svg11.dtd">
<svg width="100%" height="100%" viewBox="0 0 24 24" version="1.1" xmlns="http://www.w3.org/2000/svg" xmlns:xlink="http://www.w3.org/1999/xlink" xml:space="preserve" xmlns:serif="http://www.serif.com/" style="fill-rule:evenodd;clip-rule:evenodd;stroke-linejoin:round;stroke-miterlimit:2;">
    <path d="M20.31,18.9C21.64,16.79 21,14 18.91,12.68C16.8,11.35 14,12 12.69,14.08C11.35,16.19 12,18.97 14.09,20.3C15.55,21.23 17.41,21.23 18.88,20.32L22,23.39L23.39,22L20.31,18.9M16.5,19C15.129,19 14,17.871 14,16.5C14,15.129 15.129,14 16.5,14C17.871,14 19,15.129 19,16.5C19,17.871 17.871,19 16.5,19Z" style="fill-rule:nonzero;"/>
</svg>
