<?xml version="1.0" encoding="UTF-8" standalone="no"?>
<!DOCTYPE svg PUBLIC "-//W3C//DTD SVG 1.1//EN" "http://www.w3.org/Graphics/SVG/1.1/DTD/svg11.dtd">
<svg width="100%" height="100%" viewBox="0 0 24 24" version="1.1" xmlns="http://www.w3.org/2000/svg"
  xmlns:xlink="http://www.w3.org/1999/xlink" xml:space="preserve"
  xmlns:serif="http://www.serif.com/"
  style="fill-rule:evenodd;clip-rule:evenodd;stroke-linejoin:round;stroke-miterlimit:2;">
  <path d="M19.513,12.498L19.513,13.998C21.707,13.998 23.513,15.804 23.513,17.998C23.513,18.818 23.263,19.578 22.843,20.208L21.753,19.118C21.923,18.778 22.013,18.398 22.013,17.998C22.013,16.627 20.884,15.498 19.513,15.498L19.513,16.998L17.263,14.748L19.513,12.498M19.513,23.498L19.513,21.998C17.319,21.998 15.513,20.192 15.513,17.998C15.513,17.178 15.763,16.418 16.183,15.788L17.273,16.878C17.103,17.218 17.013,17.598 17.013,17.998C17.013,19.369 18.142,20.498 19.513,20.498L19.513,18.998L21.763,21.248L19.513,23.498Z" style="fill-rule:nonzero;"/>
  <desc>Decorates the icon with a double-arrowed circle in the lower right corner.</desc>
  <defs>
    <clipPath id="circle" />
  </defs>
</svg>